<?xml version="1.0" encoding="utf-8"?>
<svg xmlns="http://www.w3.org/2000/svg" width="105" height="26" viewBox="0 0 105 26" fill="none" >
<g clip-path="url(#clip0_7113_1994)">
<path d="M11.7951 1.2207L22.6052 15.0294H15.5104C13.5583 15.0294 12.894 13.5294 13.0786 12.2677H16.7517L11.7951 6.27179L5.09865 14.9786H0.953125L11.7951 1.2207Z" fill="#F3B01C"/>
<path d="M38.8488 23.1104H38.8037C38.6664 23.379 38.4922 23.627 38.2863 23.8474C38.0647 24.0651 37.7954 24.2284 37.4999 24.3241C37.0732 24.4621 36.6307 24.5447 36.183 24.5698C35.6403 24.6115 34.9475 24.6328 34.1044 24.6337H28.7815C28.0788 24.6531 27.3773 24.5619 26.7029 24.3634C26.2154 24.2154 25.772 23.9493 25.4122 23.5886C25.0866 23.2397 24.8555 22.8134 24.7406 22.3502C24.6058 21.8054 24.5409 21.2457 24.5473 20.6844V19.8123C24.5473 19.072 24.6767 18.4784 24.9354 18.0317C25.2005 17.5793 25.6027 17.223 26.0837 17.0142C26.6839 16.759 27.3226 16.6062 27.9733 16.5622C28.7224 16.4934 29.579 16.459 30.5432 16.459H34.1044C34.8283 16.459 35.4436 16.4808 35.9504 16.5244C36.3946 16.5542 36.8338 16.6367 37.2586 16.77C37.5888 16.8732 37.8959 17.0396 38.1627 17.2599C38.4165 17.4832 38.6343 17.7446 38.8081 18.0346H38.859V15.552C38.879 15.0628 38.7818 14.5759 38.5755 14.1318C38.3812 13.7663 38.0664 13.4792 37.6845 13.3193C37.1949 13.1175 36.6762 12.9953 36.1481 12.9574C35.5289 12.8983 34.7977 12.8682 33.9547 12.8672H30.6915C30.1213 12.8575 29.5514 12.8964 28.9879 12.9835C28.6328 13.0337 28.2907 13.1522 27.9806 13.3324C27.7625 13.4601 27.5909 13.6541 27.4907 13.8862C27.4014 14.1209 27.3575 14.3705 27.3614 14.6217V15.0868H25.1404V14.4429C25.1246 13.912 25.2238 13.3839 25.4311 12.8949C25.6356 12.457 25.9687 12.092 26.386 11.8483C26.914 11.5507 27.491 11.3499 28.0896 11.2553C28.93 11.1147 29.7813 11.05 30.6333 11.0619H34.1524C35.097 11.0568 36.041 11.1083 36.9795 11.216C37.7403 11.2927 38.4799 11.5116 39.1598 11.8614C39.7513 12.1776 40.2396 12.6569 40.5669 13.2423C40.9031 13.8373 41.0713 14.6246 41.0713 15.6043V24.4332H38.8488V23.1104ZM38.8488 20.2978C38.8684 19.9157 38.7594 19.538 38.5392 19.2251C38.2955 18.9337 37.9731 18.7187 37.6104 18.6059C37.1046 18.4406 36.5792 18.3429 36.0478 18.3152C35.4199 18.2735 34.6844 18.2522 33.8413 18.2512H30.4327C29.8379 18.2438 29.2432 18.2739 28.6521 18.3413C28.261 18.3792 27.8801 18.4885 27.5285 18.664C27.263 18.7989 27.0531 19.0227 26.9355 19.2963C26.8138 19.6213 26.757 19.967 26.7683 20.3138V20.7266C26.7621 21.0458 26.8053 21.364 26.8962 21.67C26.9876 21.9426 27.1704 22.1752 27.4137 22.3284C27.7454 22.5267 28.1146 22.6539 28.4981 22.702C29.1045 22.789 29.7169 22.8279 30.3295 22.8183H33.2802C34.2793 22.8183 35.1354 22.7969 35.8487 22.7543C36.4352 22.731 37.0164 22.6333 37.5784 22.4636C37.9502 22.3604 38.2856 22.155 38.5464 21.8705C38.7641 21.5863 38.8738 21.2339 38.856 20.8763L38.8488 20.2978Z" fill="white"/>
<path d="M44.8921 13.0807H42.0039V11.2682H44.895V8.13867H47.1146V11.2682H55.9144V13.0807H47.1117V19.6377C47.0994 20.1551 47.1561 20.6717 47.2803 21.1741C47.3723 21.545 47.5638 21.8837 47.8341 22.1538C48.1198 22.4183 48.4711 22.6015 48.8516 22.6844C49.356 22.7953 49.8716 22.847 50.388 22.8384H51.0842C51.6816 22.8495 52.2786 22.8008 52.8663 22.6931C53.2562 22.6443 53.6179 22.4646 53.8923 22.1833C54.1667 21.9021 54.3374 21.536 54.3765 21.145C54.462 20.5858 54.5004 20.0203 54.4913 19.4546V18.4734H56.2996V19.9124C56.3017 20.5297 56.2629 21.1464 56.1833 21.7584C56.1161 22.3085 55.9017 22.8303 55.5626 23.2687C55.2283 23.7048 54.7239 24.0347 54.0538 24.276C53.3837 24.5173 52.4433 24.6365 51.2398 24.6365H50.026C48.994 24.6365 48.1422 24.5202 47.4707 24.2876C46.8806 24.1054 46.3414 23.7873 45.8965 23.3588C45.5266 22.9885 45.2557 22.5312 45.1087 22.0288C44.9615 21.526 44.8876 21.0047 44.8892 20.4808L44.8921 13.0807Z" fill="white"/>
<path d="M58.0312 5.74316H60.2523V8.17059H58.0312V5.74316ZM58.0312 11.2667H60.2523V24.4329H58.0312V11.2667Z" fill="white"/>
<path d="M79.6884 24.4329H77.6229V22.3427H77.572C77.4138 22.7391 77.1766 23.0991 76.8747 23.4007C76.5728 23.7024 76.2126 23.9393 75.8161 24.0972C74.973 24.4596 73.9662 24.6403 72.7956 24.6393H69.6981C68.768 24.6469 67.8392 24.569 66.9233 24.4068C66.1547 24.2787 65.4208 23.9931 64.7677 23.5681C64.1508 23.1461 63.6636 22.5608 63.3606 21.8776C63.0254 21.1547 62.8577 20.2254 62.8577 19.0897V16.764C62.8377 15.8656 62.9509 14.9692 63.1935 14.104C63.3953 13.4153 63.7945 12.8008 64.3418 12.3365C64.8844 11.8801 65.5986 11.553 66.4843 11.3553C67.5852 11.1395 68.7059 11.042 69.8275 11.0646H73.2099C74.4832 11.0646 75.4425 11.2192 76.0879 11.5283C76.4001 11.6735 76.6791 11.8814 76.9077 12.1389C77.1362 12.3964 77.3094 12.6982 77.4165 13.0255H77.4702V5.74316H79.6898L79.6884 24.4329ZM65.0773 19.0635C65.0694 19.6242 65.1309 20.1837 65.2604 20.7293C65.3653 21.1774 65.5981 21.5855 65.9305 21.9037C66.3137 22.2434 66.7752 22.4826 67.2736 22.6C68.0003 22.773 68.7464 22.8512 69.4932 22.8326H73.1096C73.8108 22.8487 74.5106 22.762 75.1867 22.5753C75.6852 22.4364 76.1448 22.1842 76.5298 21.8383C76.8716 21.5127 77.1221 21.1033 77.2566 20.6508C77.4074 20.1275 77.4794 19.5847 77.4702 19.0403V16.5343C77.4702 15.7426 77.3583 15.1055 77.1345 14.6229C76.9319 14.1678 76.5991 13.7829 76.178 13.5168C75.712 13.24 75.193 13.0642 74.6547 13.0007C73.9875 12.9104 73.3148 12.8672 72.6416 12.8714H69.6472C68.9773 12.8669 68.308 12.9155 67.6457 13.0167C67.1355 13.0873 66.6469 13.2684 66.214 13.5473C65.8251 13.8174 65.5279 14.1997 65.3622 14.6433C65.1506 15.235 65.052 15.8612 65.0715 16.4893L65.0773 19.0635Z" fill="white"/>
<path d="M82.8906 5.74316H85.1116V8.17059H82.8906V5.74316ZM82.8906 11.2667H85.1116V24.4329H82.8906V11.2667Z" fill="white"/>
<path d="M86.375 11.2686H88.7239L95.1195 22.6266L101.515 11.2686H103.866L96.4423 24.4334H93.8085L86.375 11.2686Z" fill="white"/>
</g>
<defs>
<clipPath id="clip0_7113_1994">
<rect width="105" height="24.549" fill="white" transform="translate(0 0.725586)"/>
</clipPath>
</defs>
</svg>
