<?xml version="1.0" encoding="utf-8"?>
<svg id="Symbols" xmlns="http://www.w3.org/2000/svg" width="158" height="43" viewBox="0 0 158 43">
  <g id="Footer">
    <g id="TheLoops-logo-svg">
      <path id="Path" d="M134.527,23.475a21.549,21.549,0,0,0-3.3-.812,9.516,9.516,0,0,1-2.78-.862,1.513,1.513,0,0,1-.81-1.32,1.714,1.714,0,0,1,.729-1.421,4.024,4.024,0,0,1,4.292.127,2.276,2.276,0,0,1,.729,1.725h5.21a5.068,5.068,0,0,0-2.24-4.262A9.79,9.79,0,0,0,130.423,15a9.084,9.084,0,0,0-5.643,1.65,4.907,4.907,0,0,0-2.132,4.059q0,4.187,6.965,5.558a10.686,10.686,0,0,1,3.023.938,1.517,1.517,0,0,1,.946,1.4A1.631,1.631,0,0,1,132.8,30a3.989,3.989,0,0,1-2.269.532,4.326,4.326,0,0,1-2.563-.684,2.5,2.5,0,0,1-1.026-2.005H122a4.992,4.992,0,0,0,1.079,3.1,7.467,7.467,0,0,0,2.971,2.258,11.2,11.2,0,0,0,4.374.812,10.279,10.279,0,0,0,5.912-1.548,4.694,4.694,0,0,0,2.295-4.06C138.656,26.088,137.279,24.44,134.527,23.475Z" transform="translate(19.37 2.139)" fill="#752ddd"/>
      <path id="Shape" d="M107.06,17.281A8.6,8.6,0,0,0,100.869,15a9.175,9.175,0,0,0-4.707,1.165,7.831,7.831,0,0,0-3.1,3.3A10.5,10.5,0,0,0,92,24.326v.228a9.633,9.633,0,0,0,2.42,6.918,9.578,9.578,0,0,0,12.979,0,9.418,9.418,0,0,0,2.418-6.766l-.025-1.242A9.136,9.136,0,0,0,107.06,17.281Zm-3.3,11.428a3.724,3.724,0,0,1-5.748-.025,6.728,6.728,0,0,1-1.014-4,7.3,7.3,0,0,1,1.014-4.307,3.289,3.289,0,0,1,2.86-1.395,3.337,3.337,0,0,1,2.888,1.395,6.668,6.668,0,0,1,1.014,3.953A7.469,7.469,0,0,1,103.757,28.709Z" transform="translate(14.585 2.139)" fill="#752ddd"/>
      <path id="Shape1" d="M117.441,15a5.808,5.808,0,0,0-4.681,2.164l-.181-1.829H108v25.8h4.938V32.345a5.721,5.721,0,0,0,4.528,1.958,6.139,6.139,0,0,0,5.219-2.576,11.206,11.206,0,0,0,1.944-6.907v-.258a11.639,11.639,0,0,0-1.893-7.035A6.208,6.208,0,0,0,117.441,15Zm-1.254,15.309a3.267,3.267,0,0,1-3.223-1.83V20.85a3.233,3.233,0,0,1,3.2-1.778,2.976,2.976,0,0,1,2.661,1.417,7.352,7.352,0,0,1,.921,4.021C119.718,28.375,118.541,30.309,116.186,30.309Z" transform="translate(16.741 1.868)" fill="#752ddd"/>
      <path id="Shape2" d="M91.06,17.281A8.6,8.6,0,0,0,84.869,15a9.175,9.175,0,0,0-4.707,1.165,7.831,7.831,0,0,0-3.1,3.3A10.5,10.5,0,0,0,76,24.326v.228a9.633,9.633,0,0,0,2.42,6.918,9.578,9.578,0,0,0,12.979,0,9.418,9.418,0,0,0,2.418-6.766l-.026-1.242A9.248,9.248,0,0,0,91.06,17.281ZM87.731,28.709a3.345,3.345,0,0,1-2.861,1.343,3.38,3.38,0,0,1-2.886-1.368,6.728,6.728,0,0,1-1.014-4,7.3,7.3,0,0,1,1.014-4.307,3.29,3.29,0,0,1,2.861-1.395,3.336,3.336,0,0,1,2.886,1.395,6.66,6.66,0,0,1,1.014,3.953A7.094,7.094,0,0,1,87.731,28.709Z" transform="translate(12.048 2.139)" fill="#752ddd"/>
      <path id="Path1" d="M74.751,8H70V34.132h4.751Z" transform="translate(11.268 0.996)" fill="#752ddd"/>
      <path id="Path2" d="M38.435,30.445a2.6,2.6,0,0,1-.488-1.7V17.041H41.61v-2.5H37.946V10H34.581v4.564H31v2.5h3.581V28.75a5.448,5.448,0,0,0,1.14,3.7,4.3,4.3,0,0,0,3.391,1.3,10.054,10.054,0,0,0,2.578-.339V30.81a9.372,9.372,0,0,1-1.6.209A2.221,2.221,0,0,1,38.435,30.445Z" transform="translate(4.957 1.32)" fill="#752ddd"/>
      <path id="Shape3" d="M63.544,15a8.179,8.179,0,0,0-4.326,1.216,8.541,8.541,0,0,0-3.11,3.345A10.5,10.5,0,0,0,55,24.427v.583a8.456,8.456,0,0,0,8.95,9,8.431,8.431,0,0,0,7.382-3.548L69.3,28.963a7.818,7.818,0,0,1-2.136,1.8,6.048,6.048,0,0,1-3,.684,5.571,5.571,0,0,1-4.11-1.646,6.315,6.315,0,0,1-1.677-4.384H71.63V24.1c0-2.915-.7-5.169-2.11-6.741A7.731,7.731,0,0,0,63.544,15Zm4.7,7.83H58.461a6.436,6.436,0,0,1,1.7-3.852,4.572,4.572,0,0,1,3.407-1.393A4.277,4.277,0,0,1,66.9,18.9a5.812,5.812,0,0,1,1.379,3.7Z" transform="translate(8.732 2.139)" fill="#752ddd"/>
      <path id="Path3" d="M50.157,15.386a7.333,7.333,0,0,0-5.8,2.573V8H41V34.132h3.359V21.015a5.613,5.613,0,0,1,1.923-2.139,5.1,5.1,0,0,1,2.872-.815A4.01,4.01,0,0,1,52.107,19a3.951,3.951,0,0,1,.975,2.955V34.132h3.359V21.983C56.361,17.6,54.274,15.386,50.157,15.386Z" transform="translate(6.519 0.996)" fill="#752ddd"/>
      <path id="Shape4" d="M20.446,0a12.59,12.59,0,0,0-9.062,3.828l-.587.613L12,5.616,12.584,5A10.871,10.871,0,0,1,20.42,1.684a11.256,11.256,0,0,1,11.1,11.384,11.409,11.409,0,0,1-6.33,10.262A13.073,13.073,0,0,0,12.788,7.121,12.955,12.955,0,0,0,0,20.191,12.954,12.954,0,0,0,12.788,33.259,12.829,12.829,0,0,0,24.5,25.474a13.069,13.069,0,0,0,8.755-12.38A12.965,12.965,0,0,0,20.446,0ZM12.788,31.549a11.25,11.25,0,0,1-11.1-11.358,11.272,11.272,0,0,1,11.1-11.384,11.256,11.256,0,0,1,11.1,11.384,11.371,11.371,0,0,1-.664,3.879,11.1,11.1,0,0,1-2.782.358,11.25,11.25,0,0,1-11.1-11.359v-.842H7.658v.842a12.955,12.955,0,0,0,12.788,13.07,11.545,11.545,0,0,0,1.889-.153A11.029,11.029,0,0,1,12.788,31.549Z" fill="#752ddd"/>
    </g>
  </g>
</svg>
